<svg xmlns="http://www.w3.org/2000/svg" xmlns:xlink="http://www.w3.org/1999/xlink" width="500" zoomAndPan="magnify" viewBox="0 0 375 374.999991" height="500" preserveAspectRatio="xMidYMid meet" version="1.0"><defs><g/><clipPath id="f34683386a"><path d="M 89.914062 210.816406 L 182.804688 210.816406 L 182.804688 221.148438 L 89.914062 221.148438 Z M 89.914062 210.816406 " clip-rule="nonzero"/></clipPath><clipPath id="3f87e98441"><path d="M 194.894531 152.109375 L 287.789062 152.109375 L 287.789062 162.4375 L 194.894531 162.4375 Z M 194.894531 152.109375 " clip-rule="nonzero"/></clipPath></defs><g clip-path="url(#f34683386a)"><path fill="#000000" d="M 89.914062 210.816406 L 182.800781 210.816406 L 182.800781 221.148438 L 89.914062 221.148438 Z M 89.914062 210.816406 " fill-opacity="1" fill-rule="nonzero"/></g><g clip-path="url(#3f87e98441)"><path fill="#000000" d="M 194.894531 152.109375 L 287.785156 152.109375 L 287.785156 162.4375 L 194.894531 162.4375 Z M 194.894531 152.109375 " fill-opacity="1" fill-rule="nonzero"/></g><g fill="#000000" fill-opacity="1"><g transform="translate(89.025738, 192.370037)"><g><path d="M 19.671875 0.84375 C 29.625 0.84375 35.75 -3.90625 35.75 -11.8125 C 35.75 -18.46875 31.375 -22.4375 20.9375 -24.890625 C 14.515625 -26.390625 12.296875 -28.015625 12.296875 -30.59375 C 12.296875 -33.34375 14.75 -35.03125 18.78125 -35.03125 C 23.15625 -35.03125 25.796875 -32.75 25.796875 -28.96875 L 34.96875 -28.96875 C 34.96875 -37.4375 28.609375 -42.828125 18.65625 -42.828125 C 9 -42.828125 3 -38.09375 3 -30.40625 C 3 -23.578125 7.625 -19.5 17.453125 -17.390625 C 23.390625 -16.140625 26.09375 -14.390625 26.09375 -11.453125 C 26.09375 -8.640625 23.578125 -7.015625 19.609375 -7.015625 C 15 -7.015625 12 -9.359375 12 -13.375 L 2.640625 -13.375 C 2.640625 -4.671875 9.125 0.84375 19.671875 0.84375 Z M 19.671875 0.84375 "/></g></g></g><g fill="#000000" fill-opacity="1"><g transform="translate(139.89455, 192.370037)"><g><path d="M 0.546875 0 L 10.734375 0 L 13.5625 -7.265625 L 30.234375 -7.265625 L 33.046875 0 L 43.25 0 L 26.578125 -41.984375 L 17.21875 -41.984375 Z M 16.015625 -14.75 L 21.890625 -30.109375 L 27.828125 -14.75 Z M 16.015625 -14.75 "/></g></g></g><g fill="#000000" fill-opacity="1"><g transform="translate(194.313712, 220.874386)"><g><path d="M 15.109375 0 L 24.65625 0 L 24.65625 -33.046875 L 37.96875 -33.046875 L 37.96875 -41.984375 L 1.796875 -41.984375 L 1.796875 -33.046875 L 15.109375 -33.046875 Z M 15.109375 0 "/></g></g></g><g fill="#000000" fill-opacity="1"><g transform="translate(246.502202, 220.874386)"><g><path d="M 24.953125 0.84375 C 38.09375 0.84375 47.390625 -8.15625 47.390625 -21 C 47.390625 -33.828125 38.09375 -42.828125 24.953125 -42.828125 C 11.8125 -42.828125 2.578125 -33.828125 2.578125 -21 C 2.578125 -8.15625 11.8125 0.84375 24.953125 0.84375 Z M 12.296875 -21 C 12.296875 -28.546875 17.515625 -33.765625 24.953125 -33.765625 C 32.453125 -33.765625 37.609375 -28.546875 37.609375 -21 C 37.609375 -13.4375 32.453125 -8.21875 24.953125 -8.21875 C 17.515625 -8.21875 12.296875 -13.4375 12.296875 -21 Z M 12.296875 -21 "/></g></g></g></svg>